<svg xmlns="http://www.w3.org/2000/svg" version="1.1" xmlns:xlink="http://www.w3.org/1999/xlink" xmlns:svgjs="http://svgjs.dev/svgjs" width="2000" height="1500" viewBox="0 0 2000 1500"><rect width="2000" height="1500" fill="#000000"></rect><g transform="matrix(0.75,0,0,0.75,249.090909090909,357.01977695205437)"><svg viewBox="0 0 396 208" data-background-color="#000000" preserveAspectRatio="xMidYMid meet" height="1050" width="2000" xmlns="http://www.w3.org/2000/svg" xmlns:xlink="http://www.w3.org/1999/xlink"><g id="tight-bounds" transform="matrix(1,0,0,1,0.2400000000000091,-0.20331886479658579)"><svg viewBox="0 0 395.52 208.40663772959317" height="208.40663772959317" width="395.52"><g><svg viewBox="0 0 395.52 208.40663772959317" height="208.40663772959317" width="395.52"><g transform="matrix(1,0,0,1,0,151.6524722006372)"><svg viewBox="0 0 395.52 56.75416552895598" height="56.75416552895598" width="395.52"><g><svg viewBox="0 0 395.52 56.75416552895598" height="56.75416552895598" width="395.52"><g><rect width="39.55199999999999" height="2.993923630282706" y="47.398388833126916" fill="#89939e" data-fill-palette-color="tertiary"></rect><rect width="39.55199999999999" height="2.993923630282706" y="47.398388833126916" x="355.96799999999996" fill="#89939e" data-fill-palette-color="tertiary"></rect></g><g><svg viewBox="0 0 395.52 33.19903935322792" height="33.19903935322792" width="395.52"><g transform="matrix(1,0,0,1,0,0)"><svg width="395.52" viewBox="3.1 -34.8 420.52 35.3" height="33.19903935322792" data-palette-color="#89939e"><path d="M28.7-12.55Q28.7-5.5 25.15-2.5 21.6 0.5 16 0.5L16 0.5Q12 0.5 9.18-0.95 6.35-2.4 4.73-6.15 3.1-9.9 3.1-16.5L3.1-16.5 3.1-17.8Q3.1-24.4 4.73-28.15 6.35-31.9 9.18-33.35 12-34.8 16-34.8L16-34.8Q21.65-34.8 25.18-31.85 28.7-28.9 28.7-21.7L28.7-21.7 26.05-21.7Q26.05-27.65 23.3-30.03 20.55-32.4 16-32.4L16-32.4Q11.1-32.4 8.45-29.38 5.8-26.35 5.8-18.4L5.8-18.4 5.8-15.9Q5.8-7.95 8.45-4.93 11.1-1.9 16-1.9L16-1.9Q26.05-1.9 26.05-12.55L26.05-12.55 28.7-12.55ZM63.1-0.05Q63 0 62.65 0.08 62.3 0.15 61.85 0.15L61.85 0.15Q60.3 0.15 59.12-1.23 57.95-2.6 57.95-6.35L57.95-6.35Q57.95-12.35 55.85-14.33 53.75-16.3 51.5-16.3L51.5-16.3 40.45-16.3 40.45 0 37.75 0 37.75-34.3 51.7-34.3Q54.15-34.3 56.32-33.23 58.5-32.15 59.85-30.23 61.2-28.3 61.2-25.8L61.2-25.8Q61.2-24 60.4-22.25 59.6-20.5 58.17-19.25 56.75-18 55.05-17.7L55.05-17.7 55.05-17.45Q55.05-17.7 56.57-16.85 58.1-16 59.32-13.83 60.55-11.65 60.55-7.65L60.55-7.65Q60.55-4.8 60.9-3.48 61.25-2.15 61.62-1.83 62-1.5 63.1-1L63.1-1 63.1-0.05ZM51.85-18.7Q53.65-18.7 55.2-19.6 56.75-20.5 57.65-22.03 58.55-23.55 58.55-25.35L58.55-25.35Q58.55-27.15 57.65-28.65 56.75-30.15 55.22-31.03 53.7-31.9 51.85-31.9L51.85-31.9 40.45-31.9 40.45-18.7 51.85-18.7ZM69.3-31.85L69.3-34.3 79.9-34.3 79.9-31.85 75.95-31.85 75.95-2.45 79.9-2.45 79.9 0 69.3 0 69.3-2.45 73.25-2.45 73.25-31.85 69.3-31.85ZM124.99 0L122.29 0 122.29-31.25 122.04-31.25 108.29 0 105.74 0 92.09-31.25 91.84-31.25 91.84 0 89.44 0 89.44-34.3 93.74-34.3 107.14-3.45 107.19-3.45 120.74-34.3 124.99-34.3 124.99 0ZM158.04 0L136.34 0 136.34-34.3 157.54-34.3 157.04-31.9 139.04-31.9 139.04-18.7 154.99-18.7 154.99-16.3 139.04-16.3 139.04-2.4 157.49-2.4 158.04 0ZM202.14 0L199.44 0 199.44-16.3 180.89-16.3 180.89 0 178.19 0 178.19-34.3 180.89-34.3 180.89-18.7 199.44-18.7 199.44-34.3 202.14-34.3 202.14 0ZM224.58 0.5Q218.33 0.5 214.81-3.23 211.28-6.95 211.28-16.5L211.28-16.5 211.28-17.8Q211.28-27.35 214.81-31.08 218.33-34.8 224.58-34.8L224.58-34.8Q230.83-34.8 234.36-31.08 237.88-27.35 237.88-17.8L237.88-17.8 237.88-16.5Q237.88-6.95 234.36-3.23 230.83 0.5 224.58 0.5L224.58 0.5ZM224.58-1.9Q229.53-1.9 232.36-4.95 235.18-8 235.18-15.9L235.18-15.9 235.18-18.4Q235.18-26.3 232.36-29.35 229.53-32.4 224.58-32.4L224.58-32.4Q219.63-32.4 216.81-29.35 213.98-26.3 213.98-18.4L213.98-18.4 213.98-15.9Q213.98-8 216.81-4.95 219.63-1.9 224.58-1.9L224.58-1.9ZM269.23-31.9L257.63-31.9 257.63 0 255.03 0 255.03-31.9 243.43-31.9 243.43-34.3 269.23-34.3 269.23-31.9ZM294.73-25.15L294.73-26.25Q294.73-29.25 292.25-30.83 289.78-32.4 285.93-32.4L285.93-32.4Q281.98-32.4 279.58-30.93 277.18-29.45 277.18-26.25L277.18-26.25Q277.18-24.15 278.43-22.88 279.68-21.6 281.53-20.88 283.38-20.15 286.53-19.35L286.53-19.35Q290.33-18.35 292.65-17.43 294.98-16.5 296.6-14.58 298.23-12.65 298.23-9.4L298.23-9.4Q298.23-4.25 294.85-1.88 291.48 0.5 286.08 0.5L286.08 0.5Q280.48 0.5 277.08-1.83 273.68-4.15 273.68-9.35L273.68-9.35 273.73-10.25 276.28-10.25 276.23-8.9Q276.23-5.25 278.88-3.58 281.53-1.9 285.88-1.9L285.88-1.9Q295.58-1.9 295.58-9.25L295.58-9.25Q295.58-11.6 294.25-13.05 292.93-14.5 291-15.25 289.08-16 285.73-16.9L285.73-16.9Q282.03-17.9 279.83-18.8 277.63-19.7 276.08-21.53 274.53-23.35 274.53-26.4L274.53-26.4Q274.53-30.6 277.75-32.7 280.98-34.8 285.88-34.8L285.88-34.8Q290.93-34.8 294.08-32.6 297.23-30.4 297.23-25.8L297.23-25.8 297.23-25.15 294.73-25.15ZM307.03 0L307.03-34.3 321.07-34.3Q323.63-34.3 325.78-33.05 327.93-31.8 329.18-29.65 330.43-27.5 330.43-24.95L330.43-24.95Q330.43-22.4 329.18-20.25 327.93-18.1 325.78-16.85 323.63-15.6 321.07-15.6L321.07-15.6 309.73-15.6 309.73 0 307.03 0ZM320.73-17.95Q322.63-17.95 324.28-18.88 325.93-19.8 326.88-21.43 327.82-23.05 327.82-24.95L327.82-24.95Q327.82-26.85 326.88-28.45 325.93-30.05 324.28-30.98 322.63-31.9 320.73-31.9L320.73-31.9 309.73-31.9 309.73-17.95 320.73-17.95ZM349.97 0.5Q343.72 0.5 340.2-3.23 336.67-6.95 336.67-16.5L336.67-16.5 336.67-17.8Q336.67-27.35 340.2-31.08 343.72-34.8 349.97-34.8L349.97-34.8Q356.22-34.8 359.75-31.08 363.27-27.35 363.27-17.8L363.27-17.8 363.27-16.5Q363.27-6.95 359.75-3.23 356.22 0.5 349.97 0.5L349.97 0.5ZM349.97-1.9Q354.92-1.9 357.75-4.95 360.57-8 360.57-15.9L360.57-15.9 360.57-18.4Q360.57-26.3 357.75-29.35 354.92-32.4 349.97-32.4L349.97-32.4Q345.02-32.4 342.2-29.35 339.37-26.3 339.37-18.4L339.37-18.4 339.37-15.9Q339.37-8 342.2-4.95 345.02-1.9 349.97-1.9L349.97-1.9ZM394.62-31.9L383.02-31.9 383.02 0 380.42 0 380.42-31.9 368.82-31.9 368.82-34.3 394.62-34.3 394.62-31.9ZM420.12-25.15L420.12-26.25Q420.12-29.25 417.64-30.83 415.17-32.4 411.32-32.4L411.32-32.4Q407.37-32.4 404.97-30.93 402.57-29.45 402.57-26.25L402.57-26.25Q402.57-24.15 403.82-22.88 405.07-21.6 406.92-20.88 408.77-20.15 411.92-19.35L411.92-19.35Q415.72-18.35 418.04-17.43 420.37-16.5 421.99-14.58 423.62-12.65 423.62-9.4L423.62-9.4Q423.62-4.25 420.24-1.88 416.87 0.5 411.47 0.5L411.47 0.5Q405.87 0.5 402.47-1.83 399.07-4.15 399.07-9.35L399.07-9.35 399.12-10.25 401.67-10.25 401.62-8.9Q401.62-5.25 404.27-3.58 406.92-1.9 411.27-1.9L411.27-1.9Q420.97-1.9 420.97-9.25L420.97-9.25Q420.97-11.6 419.64-13.05 418.32-14.5 416.39-15.25 414.47-16 411.12-16.9L411.12-16.9Q407.42-17.9 405.22-18.8 403.02-19.7 401.47-21.53 399.92-23.35 399.92-26.4L399.92-26.4Q399.92-30.6 403.14-32.7 406.37-34.8 411.27-34.8L411.27-34.8Q416.32-34.8 419.47-32.6 422.62-30.4 422.62-25.8L422.62-25.8 422.62-25.15 420.12-25.15Z" opacity="1" transform="matrix(1,0,0,1,0,0)" fill="#89939e" class="undefined-text-0" data-fill-palette-color="primary" id="text-0"></path></svg></g></svg></g><g transform="matrix(1,0,0,1,39.55199999999999,41.03653576758055)"><svg viewBox="0 0 316.416 15.717629761375425" height="15.717629761375425" width="316.416"><g transform="matrix(1,0,0,1,8,0)"><svg width="300.416" viewBox="3.6 -34.8 674.64 35.3" height="15.717629761375425" data-palette-color="#dedede"><path d="M11.3-13.25L11.3 0 3.6 0 3.6-34.3 20.15-34.3Q22.95-34.3 25.33-32.98 27.7-31.65 29.1-29.3 30.5-26.95 30.5-24.05L30.5-24.05 30.5-23.75Q30.5-20.9 29.13-18.48 27.75-16.05 25.38-14.65 23-13.25 20.15-13.25L20.15-13.25 11.3-13.25ZM11.3-28.15L11.3-19.3 18.35-19.3Q20.25-19.3 21.5-20.58 22.75-21.85 22.75-23.55L22.75-23.55 22.75-23.85Q22.75-25.6 21.53-26.88 20.3-28.15 18.35-28.15L18.35-28.15 11.3-28.15ZM63.85-0.3Q62.2 0.35 59.55 0.35L59.55 0.35Q57 0.35 55.4-0.9 53.8-2.15 53.8-5.1L53.8-5.1Q53.8-9.4 52.67-11.8 51.55-14.2 48.45-14.2L48.45-14.2 42.65-14.2 42.65 0 35.05 0 35.05-34.3 50.4-34.3Q55.3-34.3 58.62-32.3 61.95-30.3 61.95-25.8L61.95-25.8Q61.95-24 61.15-22.25 60.35-20.5 58.92-19.25 57.5-18 55.8-17.7L55.8-17.7 55.8-17.45Q58-16.75 59.65-14.45 61.3-12.15 61.3-8.3L61.3-8.3Q61.3-2.8 63.85-2L63.85-2 63.85-0.3ZM50.15-20.25Q51.8-20.25 52.97-21.35 54.15-22.45 54.15-24L54.15-24 54.15-24.35Q54.15-26 53.02-27.08 51.9-28.15 50.15-28.15L50.15-28.15 42.65-28.15 42.65-20.25 50.15-20.25ZM92.6 0L68.3 0 68.3-34.3 92.45-34.3 91.6-28.15 75.9-28.15 75.9-20.65 90.55-20.65 90.55-14.5 75.9-14.5 75.9-6.15 91.75-6.15 92.6 0ZM111.19-34.3Q115.44-34.3 118.92-32.5 122.39-30.7 124.44-27.25 126.49-23.8 126.49-19.1L126.49-19.1 126.49-15.2Q126.49-10.5 124.44-7.05 122.39-3.6 118.92-1.8 115.44 0 111.19 0L111.19 0 98.19 0 98.19-34.3 111.19-34.3ZM105.94-28.15L105.94-6.15 111.19-6.15Q114.39-6.15 116.39-8.22 118.39-10.3 118.39-14.1L118.39-14.1 118.39-20.2Q118.39-24 116.39-26.08 114.39-28.15 111.19-28.15L111.19-28.15 105.94-28.15ZM132.49-28.15L132.49-34.3 148.29-34.3 148.29-28.15 144.29-28.15 144.29-6.15 148.29-6.15 148.29 0 132.49 0 132.49-6.15 136.54-6.15 136.54-28.15 132.49-28.15ZM162.44-13.6Q162.44-9.8 164.49-7.73 166.54-5.65 169.69-5.65L169.69-5.65Q173.24-5.65 174.94-7.58 176.64-9.5 176.64-13.5L176.64-13.5 183.69-13.5Q183.69-9.1 181.91-5.93 180.14-2.75 177.04-1.13 173.94 0.5 170.04 0.5L170.04 0.5 169.34 0.5Q165.04 0.5 161.64-1.25 158.24-3 156.29-6.43 154.34-9.85 154.34-14.7L154.34-14.7 154.34-19.6Q154.34-24.3 156.29-27.75 158.24-31.2 161.61-33 164.99-34.8 169.14-34.8L169.14-34.8 169.84-34.8Q173.84-34.8 176.96-33.23 180.09-31.65 181.89-28.48 183.69-25.3 183.69-20.7L183.69-20.7 176.34-20.7Q176.34-24.6 174.61-26.63 172.89-28.65 169.64-28.65L169.64-28.65Q166.49-28.65 164.46-26.58 162.44-24.5 162.44-20.7L162.44-20.7 162.44-13.6ZM213.54-28.1L203.84-28.1 203.84 0 196.19 0 196.19-28.1 186.44-28.1 186.44-34.3 213.54-34.3 213.54-28.1ZM217.53-28.15L217.53-34.3 233.33-34.3 233.33-28.15 229.33-28.15 229.33-6.15 233.33-6.15 233.33 0 217.53 0 217.53-6.15 221.58-6.15 221.58-28.15 217.53-28.15ZM269.98-14.7Q269.98-10 267.93-6.55 265.88-3.1 262.41-1.3 258.93 0.5 254.68 0.5L254.68 0.5Q250.43 0.5 246.96-1.3 243.48-3.1 241.43-6.55 239.38-10 239.38-14.7L239.38-14.7 239.38-19.6Q239.38-24.3 241.43-27.75 243.48-31.2 246.96-33 250.43-34.8 254.68-34.8L254.68-34.8Q258.93-34.8 262.41-33 265.88-31.2 267.93-27.75 269.98-24.3 269.98-19.6L269.98-19.6 269.98-14.7ZM261.88-20.7Q261.88-24.5 259.88-26.58 257.88-28.65 254.68-28.65L254.68-28.65Q251.48-28.65 249.48-26.58 247.48-24.5 247.48-20.7L247.48-20.7 247.48-13.6Q247.48-9.8 249.48-7.73 251.48-5.65 254.68-5.65L254.68-5.65Q257.88-5.65 259.88-7.73 261.88-9.8 261.88-13.6L261.88-13.6 261.88-20.7ZM296.73 0L285.98-15.8Q285.43-16.6 284.48-18.18 283.53-19.75 283.23-20.25L283.23-20.25 283.03-20.1 283.03 0 275.98 0 275.98-34.3 282.53-34.3 293.33-18.4 294.83-16.05Q295.63-14.65 296.08-14L296.08-14 296.23-14.15 296.23-34.3 303.28-34.3 303.28 0 296.73 0ZM344.02 0L341.52-6.75 327.87-6.75 325.47 0 318.02 0 330.47-34.3 339.67-34.3 352.12 0 344.02 0ZM334.62-26.05L329.97-12.6 339.47-12.6Q337.57-18.25 334.87-26.05L334.87-26.05 334.62-26.05ZM376.57 0L365.82-15.8Q365.27-16.6 364.32-18.18 363.37-19.75 363.07-20.25L363.07-20.25 362.87-20.1 362.87 0 355.82 0 355.82-34.3 362.37-34.3 373.17-18.4 374.67-16.05Q375.47-14.65 375.92-14L375.92-14 376.07-14.15 376.07-34.3 383.12-34.3 383.12 0 376.57 0ZM403.37-34.3Q407.62-34.3 411.09-32.5 414.57-30.7 416.62-27.25 418.67-23.8 418.67-19.1L418.67-19.1 418.67-15.2Q418.67-10.5 416.62-7.05 414.57-3.6 411.09-1.8 407.62 0 403.37 0L403.37 0 390.37 0 390.37-34.3 403.37-34.3ZM398.12-28.15L398.12-6.15 403.37-6.15Q406.57-6.15 408.57-8.22 410.57-10.3 410.57-14.1L410.57-14.1 410.57-20.2Q410.57-24 408.57-26.08 406.57-28.15 403.37-28.15L403.37-28.15 398.12-28.15ZM458.16 0L455.66-6.75 442.01-6.75 439.61 0 432.16 0 444.61-34.3 453.81-34.3 466.26 0 458.16 0ZM448.76-26.05L444.11-12.6 453.61-12.6Q451.71-18.25 449.01-26.05L449.01-26.05 448.76-26.05ZM490.71 0L479.96-15.8Q479.41-16.6 478.46-18.18 477.51-19.75 477.21-20.25L477.21-20.25 477.01-20.1 477.01 0 469.96 0 469.96-34.3 476.51-34.3 487.31-18.4 488.81-16.05Q489.61-14.65 490.06-14L490.06-14 490.21-14.15 490.21-34.3 497.26-34.3 497.26 0 490.71 0ZM527.01 0L524.51-6.75 510.86-6.75 508.46 0 501.01 0 513.46-34.3 522.66-34.3 535.11 0 527.01 0ZM517.61-26.05L512.96-12.6 522.46-12.6Q520.56-18.25 517.86-26.05L517.86-26.05 517.61-26.05ZM561.5 0L538.81 0 538.81-34.3 546.56-34.3 546.56-6.4 560.66-6.4 561.5 0ZM593.35-34.3L581.65-13.15 581.65 0 573.95 0 573.95-13.15 562.2-34.3 570.9-34.3 578.05-20.7 578.3-20.7 585.45-34.3 593.35-34.3ZM615.45-24.15L615.45-24.6Q615.45-26.5 613.95-27.58 612.45-28.65 609.8-28.65L609.8-28.65Q607.05-28.65 605.52-27.78 604-26.9 604-25.45L604-25.45Q604-24.2 604.95-23.38 605.9-22.55 607.37-22.05 608.85-21.55 611.4-20.95L611.4-20.95Q615.15-20.05 617.57-19.1 620-18.15 621.72-16.15 623.45-14.15 623.45-10.8L623.45-10.8Q623.45-4.95 619.67-2.23 615.9 0.5 609.3 0.5L609.3 0.5Q603.3 0.5 599.37-2.13 595.45-4.75 595.45-10.1L595.45-10.1 595.5-11.2 602.8-11.2 602.75-10.4Q602.75-8.2 604.4-6.93 606.05-5.65 609.05-5.65L609.05-5.65Q612.55-5.65 614.07-6.75 615.6-7.85 615.6-9.55L615.6-9.55Q615.6-10.85 614.67-11.68 613.75-12.5 612.32-12.98 610.9-13.45 608.35-14.05L608.35-14.05Q604.55-15 602.15-15.95 599.75-16.9 598-19 596.25-21.1 596.25-24.65L596.25-24.65Q596.25-27.95 598.05-30.25 599.85-32.55 602.87-33.68 605.9-34.8 609.65-34.8L609.65-34.8Q615.4-34.8 619.05-32.27 622.7-29.75 622.7-24.75L622.7-24.75 622.7-24.15 615.45-24.15ZM629.05-28.15L629.05-34.3 644.85-34.3 644.85-28.15 640.85-28.15 640.85-6.15 644.85-6.15 644.85 0 629.05 0 629.05-6.15 633.1-6.15 633.1-28.15 629.05-28.15ZM670.24-24.15L670.24-24.6Q670.24-26.5 668.74-27.58 667.24-28.65 664.59-28.65L664.59-28.65Q661.84-28.65 660.32-27.78 658.79-26.9 658.79-25.45L658.79-25.45Q658.79-24.2 659.74-23.38 660.69-22.55 662.17-22.05 663.64-21.55 666.19-20.95L666.19-20.95Q669.94-20.05 672.37-19.1 674.79-18.15 676.52-16.15 678.24-14.15 678.24-10.8L678.24-10.8Q678.24-4.95 674.47-2.23 670.69 0.5 664.09 0.5L664.09 0.5Q658.09 0.5 654.17-2.13 650.24-4.75 650.24-10.1L650.24-10.1 650.29-11.2 657.59-11.2 657.54-10.4Q657.54-8.2 659.19-6.93 660.84-5.65 663.84-5.65L663.84-5.65Q667.34-5.65 668.87-6.75 670.39-7.85 670.39-9.55L670.39-9.55Q670.39-10.85 669.47-11.68 668.54-12.5 667.12-12.98 665.69-13.45 663.14-14.05L663.14-14.05Q659.34-15 656.94-15.95 654.54-16.9 652.79-19 651.04-21.1 651.04-24.65L651.04-24.65Q651.04-27.95 652.84-30.25 654.64-32.55 657.67-33.68 660.69-34.8 664.44-34.8L664.44-34.8Q670.19-34.8 673.84-32.27 677.49-29.75 677.49-24.75L677.49-24.75 677.49-24.15 670.24-24.15Z" opacity="1" transform="matrix(1,0,0,1,0,0)" fill="#dedede" class="undefined-text-1" data-fill-palette-color="secondary" id="text-1"></path></svg></g></svg></g></svg></g></svg></g><g transform="matrix(1,0,0,1,129.771260314034,0)"><svg viewBox="0 0 135.97747937193193 135.97747937193193" height="135.97747937193193" width="135.97747937193193"><g><svg></svg></g><g id="icon-0"><svg viewBox="0 0 135.97747937193193 135.97747937193193" height="135.97747937193193" width="135.97747937193193"><g><path d="M0 67.989c0-37.549 30.44-67.989 67.989-67.989 37.549 0 67.989 30.44 67.988 67.989 0 37.549-30.44 67.989-67.988 67.988-37.549 0-67.989-30.44-67.989-67.988zM67.989 132.984c35.896 0 64.995-29.099 64.995-64.995 0-35.896-29.099-64.995-64.995-64.995-35.896 0-64.995 29.099-64.995 64.995 0 35.896 29.099 64.995 64.995 64.995z" data-fill-palette-color="tertiary" fill="#89939e" stroke="transparent"></path></g><g transform="matrix(1,0,0,1,30.672418120552535,30.67241812055255)"><svg viewBox="0 0 74.63264313082686 74.63264313082684" height="74.63264313082684" width="74.63264313082686"><g><svg xmlns="http://www.w3.org/2000/svg" xmlns:xlink="http://www.w3.org/1999/xlink" version="1.1" x="0" y="0" viewBox="5.685546900000001 5.646484300000004 36.667968900000005 36.66796889999999" style="enable-background:new 0 0 48 48;" xml:space="preserve" height="74.63264313082684" width="74.63264313082686" class="icon-ju-0" data-fill-palette-color="accent" id="ju-0"><path d="M39.187 35.98c-0.509 0-0.982 0.132-1.41 0.346L26.047 24.611l6.073-1.225c0.548 0.948 1.562 1.595 2.733 1.594 1.746 0 3.167-1.421 3.167-3.167s-1.421-3.167-3.167-3.167c-1.612 0-2.934 1.217-3.128 2.778l-6.037 1.219 4.576-10.688c0.086 0.007 0.169 0.026 0.257 0.025 1.746 0 3.167-1.421 3.166-3.167s-1.421-3.167-3.166-3.167-3.167 1.421-3.167 3.167c0 0.939 0.419 1.775 1.071 2.356l-4.554 10.637-3.957-6.608C20.389 14.644 20.688 13.933 20.688 13.147c0-1.746-1.421-3.167-3.167-3.167s-3.167 1.421-3.167 3.167 1.421 3.167 3.167 3.167c0.235 0 0.463-0.03 0.683-0.078l3.368 5.623-9.579-4.117c0.007-0.087 0.026-0.171 0.027-0.261 0-1.746-1.421-3.167-3.167-3.167s-3.167 1.421-3.167 3.167 1.421 3.167 3.167 3.167c0.938 0 1.772-0.417 2.352-1.067l10.622 4.565-6.589 3.943c-0.554-0.476-1.265-0.774-2.051-0.775-1.746 0-3.167 1.421-3.167 3.167s1.421 3.167 3.167 3.167 3.167-1.421 3.167-3.167c0-0.234-0.03-0.462-0.079-0.681l6.457-3.864-1.445 10.102c-1.477 0.268-2.602 1.557-2.601 3.109 0 1.746 1.421 3.167 3.167 3.167s3.167-1.421 3.167-3.167c0-1.236-0.719-2.298-1.754-2.819l1.461-10.209 11.636 11.623c-0.213 0.425-0.344 0.898-0.343 1.405 0 1.746 1.421 3.167 3.167 3.167s3.167-1.421 3.167-3.167S40.933 35.98 39.187 35.98zM30.521 7.646c0.644 0 1.167 0.523 1.166 1.167s-0.523 1.167-1.166 1.167-1.167-0.523-1.167-1.167S29.877 7.646 30.521 7.646zM8.853 18.648c-0.644 0-1.167-0.523-1.167-1.167s0.523-1.167 1.167-1.167 1.167 0.523 1.167 1.167S9.496 18.648 8.853 18.648zM34.853 20.646c0.644 0 1.167 0.523 1.167 1.167s-0.523 1.167-1.167 1.167-1.167-0.523-1.167-1.167S34.209 20.646 34.853 20.646zM16.354 13.147c0-0.644 0.523-1.167 1.167-1.167S18.688 12.504 18.688 13.147s-0.523 1.167-1.167 1.167S16.354 13.791 16.354 13.147zM13.187 31.648c-0.644 0-1.167-0.523-1.167-1.167s0.523-1.167 1.167-1.167 1.167 0.523 1.167 1.167S13.83 31.648 13.187 31.648zM21.853 40.314c-0.644 0-1.167-0.523-1.167-1.167s0.523-1.167 1.167-1.167 1.167 0.523 1.167 1.167S22.496 40.314 21.853 40.314zM39.187 40.314c-0.644 0-1.167-0.523-1.167-1.167s0.523-1.167 1.167-1.167 1.167 0.523 1.167 1.167S39.83 40.314 39.187 40.314z" fill="#dedede" data-fill-palette-color="accent"></path></svg></g></svg></g></svg></g></svg></g><g></g></svg></g><defs></defs></svg><rect width="395.52" height="208.40663772959317" fill="none" stroke="none" visibility="hidden"></rect></g></svg></g></svg>