<?xml version="1.0" encoding="UTF-8"?>
<svg width="1200pt" height="1200pt" version="1.1" viewBox="0 0 1200 1200" xmlns="http://www.w3.org/2000/svg">
 <path d="m1e3 500c-19.887 0.039062-39.305 6.0078-55.781 17.141s-29.262 26.926-36.719 45.359h-219.5l154-154c28.344 13.352 61.309 12.648 89.059-1.9023 27.746-14.555 47.07-41.27 52.207-72.18 5.1328-30.906-4.5195-62.438-26.074-85.176-21.555-22.742-52.52-34.062-83.66-30.59s-58.852 21.34-74.867 48.27c-16.016 26.93-18.48 59.809-6.6641 88.828l-154.5 154.25v-216.25c18.633-7.5352 34.562-20.512 45.711-37.234 11.148-16.723 17-36.418 16.789-56.516 0.41016-26.645-9.9961-52.32-28.84-71.16-18.84-18.844-44.516-29.25-71.16-28.84-31.129 0.19531-60.391 14.875-79.156 39.711-18.766 24.836-24.898 56.992-16.586 86.988 8.3125 30 30.121 54.414 58.992 66.051v217l-152.5-152.25c12.812-28.547 11.523-61.445-3.4844-88.898-15.004-27.457-41.996-46.309-72.941-50.941-30.941-4.6367-62.273 5.4805-84.66 27.34-22.391 21.855-33.262 52.934-29.375 83.98 3.8906 31.047 22.082 58.484 49.172 74.145 27.086 15.664 59.941 17.746 88.789 5.625l154.75 154.75h-219.5c-11.191-29.516-35.66-52.02-66.012-60.695-30.352-8.6797-63.02-2.5195-88.125 16.621-25.102 19.141-39.695 49.008-39.363 80.574-0.41016 26.645 9.9961 52.32 28.84 71.16 18.84 18.844 44.516 29.25 71.16 28.84 19.941 0.24219 39.496-5.4883 56.16-16.445 16.66-10.961 29.664-26.648 37.34-45.055h215.5l-152.75 152.75c-29.102-11.516-61.918-8.7383-88.676 7.5-26.754 16.238-44.363 44.07-47.582 75.199-3.2188 31.133 8.3203 61.977 31.188 83.348 22.867 21.371 54.422 30.801 85.262 25.488 30.844-5.3164 57.422-24.766 71.816-52.559 14.395-27.789 14.945-60.719 1.4922-88.977l154.25-154.25v221.5c-18.793 7.25-34.957 20.012-46.379 36.605-11.418 16.594-17.562 36.25-17.621 56.395-0.14062 26.43 10.398 51.793 29.227 70.34 18.828 18.543 44.352 28.699 70.773 28.16 26.523 0 51.957-10.535 70.711-29.289 18.754-18.754 29.289-44.188 29.289-70.711 0.12109-19.766-5.8008-39.098-16.969-55.406-11.172-16.309-27.059-28.812-45.531-35.844v-220.75l156.25 156.25c-11.715 29.047-9.1445 61.906 6.9453 88.777 16.09 26.871 43.84 44.652 74.977 48.043 31.141 3.3867 62.066-8.0078 83.559-30.793 21.492-22.781 31.07-54.32 25.875-85.207-5.1953-30.887-24.562-57.555-52.324-72.055s-60.715-15.152-89.031-1.7656l-153-153h216.5c7.3281 18.516 20.141 34.348 36.715 45.383 16.574 11.035 36.125 16.746 56.035 16.367 26.523 0 51.957-10.535 70.711-29.289 18.754-18.754 29.289-44.188 29.289-70.711 0.41016-26.645-9.9961-52.32-28.84-71.16-18.84-18.844-44.516-29.25-71.16-28.84z"/>
</svg>
