<?xml version="1.0" encoding="UTF-8"?>
<svg width="700pt" height="700pt" version="1.1" viewBox="0 0 700 700" xmlns="http://www.w3.org/2000/svg">
 <g>
  <path d="m577.5 490h-367.5v-245h52.5c10.5 0 17.5-7 17.5-17.5v-140c0-5.25-1.75-8.75-5.25-12.25l-35-35c-3.5-3.5-7-5.25-12.25-5.25h-105c-10.5 0-17.5 7-17.5 17.5v175c0 10.5 7 17.5 17.5 17.5h52.5v262.5c0 10.5 7 17.5 17.5 17.5h385c10.5 0 17.5-7 17.5-17.5s-7-17.5-17.5-17.5zm-339.5-402.5h-10.5v-10.5zm-98-17.5h52.5v35c0 10.5 7 17.5 17.5 17.5h35v87.5h-105z"/>
  <path d="m472.5 245c68.25 0 122.5-47.25 122.5-105s-54.25-105-122.5-105-122.5 47.25-122.5 105 54.25 105 122.5 105zm0-175c49 0 87.5 31.5 87.5 70s-38.5 70-87.5 70-87.5-31.5-87.5-70 38.5-70 87.5-70z"/>
  <path d="m558.25 299.25c-22.75-22.75-54.25-36.75-84-36.75-24.5 0-47.25 8.75-63 26.25-19.25 19.25-28 45.5-24.5 73.5 1.75 28 15.75 54.25 36.75 75.25 22.75 22.75 54.25 36.75 84 36.75 24.5 0 47.25-8.75 63-26.25 19.25-19.25 28-45.5 24.5-73.5s-15.75-54.25-36.75-75.25zm-14 122.5c-10.5 10.5-22.75 15.75-38.5 15.75-21 0-42-8.75-59.5-26.25-15.75-15.75-24.5-33.25-26.25-52.5-1.75-17.5 3.5-33.25 14-45.5 10.5-10.5 22.75-15.75 38.5-15.75 21 0 42 8.75 59.5 26.25 15.75 15.75 24.5 33.25 26.25 52.5 3.5 19.25-1.75 35-14 45.5z"/>
  <path d="m472.5 192.5c10.5 0 17.5-7 17.5-17.5s-7-17.5-17.5-17.5-17.5 7-17.5 17.5 7 17.5 17.5 17.5z"/>
  <path d="m472.5 122.5c10.5 0 17.5-7 17.5-17.5s-7-17.5-17.5-17.5-17.5 7-17.5 17.5 7 17.5 17.5 17.5z"/>
  <path d="m525 157.5c10.5 0 17.5-7 17.5-17.5s-7-17.5-17.5-17.5-17.5 7-17.5 17.5 7 17.5 17.5 17.5z"/>
  <path d="m420 157.5c10.5 0 17.5-7 17.5-17.5s-7-17.5-17.5-17.5-17.5 7-17.5 17.5 7 17.5 17.5 17.5z"/>
  <path d="m507.5 385h35v35h-35z"/>
  <path d="m490 332.5h35v35h-35z"/>
  <path d="m437.5 332.5h35v35h-35z"/>
  <path d="m227.5 367.5c0 59.5 31.5 105 70 105s70-45.5 70-105-31.5-105-70-105-70 45.5-70 105zm70-70c15.75 0 35 29.75 35 70s-19.25 70-35 70-35-29.75-35-70 19.25-70 35-70z"/>
  <path d="m297.5 315-17.5 35h35z"/>
  <path d="m297.5 367.5-17.5 35h35z"/>
 </g>
</svg>
